#!OML:ASF F:\VICON\USERDATA\INSTALL\rory3\rory3.ASF
:FULLY-SPECIFIED
:DEGREES
1
root 0.09631832768877369 17.550300832765252 -14.39818963505311 7.934853253403831 1.0999243838068984 -1.297787823025411
lfemur -16.194303785241882 6.078164860120099 -16.89040795408528
ltibia 20.035705048584326
lfoot -9.131520639905371 4.921012146964943
ltoes -11.059498918710416
rfemur -15.66660405219806 -3.933528857883532 19.93160512204955
rtibia 21.357505300369333
rfoot -13.184800260895175 -0.9210730555124886
rtoes 8.764088707537965
lowerback -0.4473960362625894 -0.7962243720654927 1.0254868268352673
upperback 5.580987786063108 -1.1992295383282918 1.8793647435232579
thorax 6.055421418537293 -0.5968632584394478 1.3103375136423658
lowerneck -10.579206170508286 -0.3646994916518828 -2.9984492197308943
upperneck 36.0590862124692 -0.3881373732276498 1.6792491655205313
head 14.066785493805707 -0.3528249843407152 1.1568511867704014
lclavicle -1.6527450746428442e-15 3.6495729569806184e-16
lhumerus -16.908107843320394 2.6375149054138087 86.90979892512046
lradius 21.26910129666345
lwrist 1.8028041654690776
lhand -23.135603728144144 -3.37662686169721
lfingers 7.125019999999999
lthumb 3.312126271068797 26.577393102085285
rclavicle -1.6527450746428442e-15 3.6495729569806184e-16
rhumerus -17.0929125140665 -12.894699741434374 -81.46569457437145
rradius 28.400299377483634
rwrist 28.89951458392151
rhand -19.227887782777422 -27.45919224504534
rfingers 7.125019999999999
rthumb 7.085162220444754 -57.320591919127274
2
root 0.09609144223105942 17.543800878438347 -14.365489661681446 7.664253688623697 0.9997992298771153 -1.3478670317529107
lfemur -15.575904206361146 6.3594433452493435 -16.770208664204493
ltibia 19.704705241412746
lfoot -9.41957035151809 4.641902667755013
ltoes -11.145498804952597
rfemur -15.306004301236525 -3.9173089236332665 19.965004902841173
rtibia 21.442105253003394
rfoot -13.325300126003915 -0.8884041157979143
rtoes 8.661518834478564
lowerback -0.7272986284095501 -0.7662577563489792 1.010746961164276
upperback 5.44255834363746 -1.1603199244307387 1.8436854285056328
thorax 6.068231390619397 -0.5770636252597023 1.280417934843109
lowerneck -10.638905992027967 -0.34233988592675707 -2.9390806829683473
upperneck 36.12308614108077 -0.32825796118881406 1.56753019278378
head 14.107785355497068 -0.3343035348251985 1.1105829605299482
lclavicle -1.6527450793899995e-15 3.6495729885016686e-16
lhumerus -17.000507748061544 0.1957562602799241 88.05709646790403
lradius 22.142699956812642
lwrist 3.353432822544878
lhand -24.073498368576182 -4.76234139530618
lfingers 7.125019999999999
lthumb 2.406421630738517 25.203798555878866
rclavicle -1.6527450793899995e-15 3.6495729885016686e-16
rhumerus -17.168712382684745 -14.493297797140963 -81.02229582248782
rradius 27.120801165005023
rwrist 30.416411115375627
rhand -19.17198812900594 -27.47329212000099
rfingers 7.125019999999999
rthumb 7.139111874087174 -57.33289181488088
3
root 0.110527616940515 17.537600922003453 -14.334989686518242 7.280464305892837 0.9561045991022717 -1.354776922573739
lfemur -14.827504716008038 6.676851635795689 -16.74350882194312
ltibia 19.321805464476192
lfoot -9.651020119797082 4.269353362894348
ltoes -11.230898691988436
rfemur -14.805204647100236 -3.7626195506879263 19.885205426578562
rtibia 21.529405204125723
rfoot -13.460299996393093 -1.0929237383889054
rtoes 8.328769246289852
lowerback -0.9927952415478168 -0.7608788253268816 0.9518764976692244
upperback 5.375258614711316 -1.151040016515825 1.7606570225103018
thorax 6.148541215593145 -0.5727697048115298 1.2244287230459707
lowerneck -10.77650558065623 -0.21526812662824812 -2.8800621375796736
upperneck 36.368685867127624 -0.15592365335439543 1.582380056238316
head 14.246884886259704 -0.25253296516575247 1.134892028606573
lclavicle -1.6527450855781776e-15 3.649573105579207e-16
lhumerus -16.800707954043396 -1.743270869695242 88.840594789852
lradius 22.201499866630375
lwrist 3.579602626670181
lhand -23.15640360928391 -3.5380562248878222
lfingers 7.125019999999999
lthumb 3.292036389954275 26.41629374172284
rclavicle -1.6527450855781776e-15 3.649573105579207e-16
rhumerus -17.29991215527995 -16.084495861847785 -80.85599629060184
rradius 26.037202678844945
rwrist 31.647208301026463
rhand -18.95898944826666 -27.40989268225715
rfingers 7.125019999999999
rthumb 7.344770553755374 -57.26239241239073
4
root 0.13862181623517017 17.5315009648659 -14.309189707527784 6.903584912048279 0.8983870868225502 -1.418495915786922
lfemur -14.155905173355551 6.90543040474778 -16.696509099610367
ltibia 19.042605627127806
lfoot -9.876159894393462 3.9802539023247165
ltoes -11.107298855482233
rfemur -14.278405010920133 -3.5335204793725383 19.8170058741837
rtibia 21.51280521341976
rfoot -13.540099919778697 -1.3917631869273863
rtoes 7.864079821390037
lowerback -1.2479868697017484 -0.7675577396783552 0.893686027977183
upperback 5.316788850219317 -1.160439923239984 1.733167550261577
thorax 6.234071029190488 -0.579335583168004 1.224808717696495
lowerneck -10.925905134006975 -0.04332355858792332 -2.7356756962263926
upperneck 36.73368545999048 0.10935674183429364 1.462601157613109
head 14.443784222040902 -0.13839135762074975 1.1048031821061362
lclavicle -1.6527450787965635e-15 3.6495728173881245e-16
lhumerus -16.514908248686105 -3.001579656164682 89.4081935742013
lradius 21.780900511709643
lwrist 3.4272227586389925
lhand -23.146803664142478 -3.444356594515768
lfingers 7.125019999999999
lthumb 3.301306335097712 26.50979337048689
rclavicle -1.6527450787965635e-15 3.6495728173881245e-16
rhumerus -17.61271161311363 -17.046494691817593 -80.89269618729585
rradius 25.52130339958139
rwrist 32.39170659865162
rhand -18.656391322484016 -27.31759350080989
rfingers 7.125019999999999
rthumb 7.636828678737846 -57.159793281958265
